<?xml version="1.0" encoding="utf-8"?>
<!-- Generator: Adobe Illustrator 24.3.0, SVG Export Plug-In . SVG Version: 6.00 Build 0)  -->
<svg version="1.1" id="Ebene_1" xmlns="http://www.w3.org/2000/svg" xmlns:xlink="http://www.w3.org/1999/xlink" x="0px" y="0px"
	 viewBox="0 0 149.3 24" style="enable-background:new 0 0 149.3 24;" xml:space="preserve">
<style type="text/css">
	.st0{fill:#236092;}
	.st1{fill:#95ABC7;}
	.st2{fill:#BFCBDD;}
	.st3{fill:none;stroke:#236092;stroke-width:2;stroke-miterlimit:10;}
</style>
<g>
	<g>
		<path class="st0" d="M101.4,19.5h-3.8l-0.7,1.7h-2.4l3.6-8.2h2.7l3.6,8.2H102L101.4,19.5z M99.5,14.8L98.2,18h2.6L99.5,14.8z"/>
		<path class="st0" d="M105.6,13.2h2v1.9h1.6v1.4h-1.6v2.9c0,0.5,0.1,0.6,0.7,0.6c0.4,0,0.7,0,1,0v1.4c-0.4,0-1.1,0.1-1.6,0.1
			c-1.9,0-2.1-0.7-2.1-1.8v-3.1h-1.3v-1.4h1.3V13.2z"/>
		<path class="st0" d="M113.9,14.8c2.4,0,4.1,1,4.1,3.3c0,2.3-1.6,3.3-4.1,3.3c-2.4,0-4.1-1-4.1-3.3
			C109.8,15.8,111.4,14.8,113.9,14.8z M113.9,20c1.3,0,2-0.7,2-1.9c0-1.2-0.7-1.9-2-1.9c-1.3,0-2,0.7-2,1.9
			C111.9,19.4,112.6,20,113.9,20z"/>
		<path class="st0" d="M119.7,13.2h2v1.9h1.6v1.4h-1.6v2.9c0,0.5,0.1,0.6,0.7,0.6c0.4,0,0.7,0,1,0v1.4c-0.4,0-1.1,0.1-1.6,0.1
			c-1.9,0-2.1-0.7-2.1-1.8v-3.1h-1.3v-1.4h1.3V13.2z"/>
		<path class="st0" d="M131.7,19.4c-0.6,1.5-2,2.1-3.8,2.1c-2.4,0-4.1-1-4.1-3.3c0-2.3,1.6-3.3,4.1-3.3c2.7,0,4,1.3,4,3.7v0.2h-5.9
			v0c0,0.6,0.6,1.5,2,1.5c0.8,0,1.4-0.3,1.7-0.8H131.7z M129.8,17.5L129.8,17.5c0-0.4-0.4-1.4-1.9-1.4c-1.6,0-1.9,1.2-1.9,1.4v0
			H129.8z"/>
		<path class="st0" d="M138.4,17.3c-0.2-0.8-0.9-1.1-1.7-1.1c-1.3,0-2,0.7-2,1.9c0,1.2,0.7,1.9,2,1.9c0.9,0,1.6-0.5,1.7-1.3h2.1
			c-0.4,2.2-1.9,2.7-3.9,2.7c-2.3,0-3.9-1-3.9-3.3c0-2.3,1.6-3.3,4.1-3.3c1.6,0,3.4,0.5,3.8,2.5H138.4z"/>
		<path class="st0" d="M141.4,12.9h2V16h0c0.3-0.5,1.3-1.1,2.5-1.1c1,0,2.6,0.4,2.6,2.2v4.1h-2v-3.5c0-0.9-0.4-1.3-1.4-1.3
			c-0.9,0-1.7,0.5-1.7,1.8v3h-2V12.9z"/>
	</g>
	<g>
		<g>
			<path class="st0" d="M24,5.3c0,2.9-2.4,5.3-5.3,5.3c-2.9,0-5.3-2.4-5.3-5.3c0-2.9,2.4-5.3,5.3-5.3C21.7,0,24,2.4,24,5.3L24,5.3z"
				/>
			<path class="st1" d="M24,18.4c0,2.9-2.4,5.3-5.3,5.3c-2.9,0-5.3-2.4-5.3-5.3s2.4-5.3,5.3-5.3C21.7,13.1,24,15.4,24,18.4L24,18.4z
				"/>
			<path class="st2" d="M10.5,18.4c0,2.9-2.4,5.3-5.3,5.3c-2.9,0-5.3-2.4-5.3-5.3c0-2.9,2.4-5.3,5.3-5.3
				C8.2,13.1,10.5,15.5,10.5,18.4L10.5,18.4z"/>
		</g>
		<g>
			<g>
				<path class="st0" d="M49.9,13.6v10.1h-3.7v-9.2c0-0.9-0.3-2.3-3-2.3c-2.6,0-2.9,1.4-2.9,2.3v9.2h-3.7v-9.2c0-0.9-0.3-2.3-3-2.3
					c-2.7,0-3,1.4-3,2.3v9.2h-3.7V11.2l0.5,0c1.1-0.1,3.3-1.1,6.6-1.1c2.5,0,3.6,0.6,4.6,1.7c0.9-1,2.8-1.7,5.1-1.7
					C47.4,10,49.9,11.1,49.9,13.6z"/>
			</g>
			<g>
				<path class="st0" d="M54.9,23.7h-3.7V5.3h3.7v9.1l4.9-3.6H65l-8.2,5.2c3.8,0.1,6.1,1.2,6.8,2.3c0.6,0.9,0.9,3.2,0.9,5.5h-3.7
					c0-1.8-0.2-3.6-0.7-4.2c-0.9-1.3-2.9-1.6-5.2-1.7V23.7z"/>
			</g>
			<g>
				<path class="st0" d="M78.8,14.6h-3.5c0-1.1-0.4-2.6-3.1-2.6c-2.5,0-2.7,0.8-2.7,1.9c0,1.1,0.8,1.5,3.8,1.8
					c2.7,0.3,5.9,0.1,5.9,3.8c0,3.8-4.1,4.5-6.7,4.5c-3.6,0-7-0.9-7-4.6H69c0,2.5,1.8,2.7,3.3,2.7c2.1,0,3.3-0.7,3.3-2
					c0-1.8-1.5-1.7-4.1-1.9c-3.4-0.3-5.6-0.5-5.6-3.8c0-3.7,3.4-4.3,6.4-4.3C76.9,10,78.8,11.7,78.8,14.6z"/>
			</g>
		</g>
	</g>
	<line class="st3" x1="87.1" y1="23.6" x2="87.1" y2="10.5"/>
</g>
</svg>
